<svg width="120" height="120" viewBox="0 0 120 120" fill="none" xmlns="http://www.w3.org/2000/svg">
<g clip-path="url(#clip0_1127_209472)">
<path d="M116.424 67.0588H64.0809L98.9404 101.918C100.273 103.251 102.465 103.359 103.835 102.068C112.372 94.0257 118.244 83.1838 119.967 70.9963C120.262 68.9096 118.531 67.0588 116.424 67.0588ZM112.932 52.7647C111.115 26.4132 90.0573 5.3559 63.7059 3.53825C61.6941 3.39928 60 5.0956 60 7.11178V56.4706H109.361C111.377 56.4706 113.071 54.7765 112.932 52.7647ZM49.4118 67.0588V14.7155C49.4118 12.6088 47.561 10.8772 45.4765 11.1728C19.189 14.8875 -0.904418 37.853 0.0308762 65.3757C0.992641 93.6419 25.3301 116.821 53.6095 116.466C64.7272 116.327 75 112.745 83.4463 106.754C85.189 105.518 85.3037 102.953 83.7926 101.442L49.4118 67.0588Z" fill="#FCC419"/>
</g>
<defs>
<clipPath id="clip0_1127_209472">
<rect width="120" height="120" fill="white"/>
</clipPath>
</defs>
</svg>
