<svg width="139" height="130" viewBox="0 0 139 130" fill="none" xmlns="http://www.w3.org/2000/svg">
<path d="M134.012 73.1249H73.7612L113.887 113.25C115.42 114.784 117.944 114.908 119.521 113.423C129.347 104.165 136.106 91.6859 138.089 77.6573C138.429 75.2553 136.436 73.1249 134.012 73.1249ZM129.992 56.6717C127.9 26.3396 103.661 2.10139 73.3297 0.00918006C71.0138 -0.150771 69.0639 1.80179 69.0639 4.1225V60.9371H125.881C128.202 60.9371 130.152 58.9872 129.992 56.6717ZM56.8761 73.1249V12.8748C56.8761 10.4499 54.7462 8.45678 52.3464 8.79699C22.0881 13.0728 -1.04047 39.5073 0.0361021 71.1874C1.14315 103.724 29.157 130.404 61.7082 129.995C74.5052 129.836 86.3298 125.712 96.052 118.816C98.0576 117.394 98.1898 114.441 96.4508 112.702L56.8761 73.1249Z" fill="#7048E8"/>
</svg>
