<svg width="175" height="31" viewBox="0 0 175 31" fill="none" xmlns="http://www.w3.org/2000/svg">
<g clip-path="url(#clip0_1208_209687)">
<path d="M29.1061 17.2647H16.0202L24.7351 25.9796C25.0682 26.3127 25.6164 26.3397 25.9588 26.0171C28.093 24.0064 29.561 21.296 29.9917 18.2491C30.0656 17.7274 29.6327 17.2647 29.1061 17.2647ZM28.2331 13.6912C27.7787 7.10331 22.5143 1.83897 15.9265 1.38456C15.4235 1.34982 15 1.7739 15 2.27794V14.6176H27.3403C27.8443 14.6176 28.2678 14.1941 28.2331 13.6912ZM12.3529 17.2647V4.17886C12.3529 3.65221 11.8903 3.21931 11.3691 3.2932C4.79724 4.22188 -0.226104 9.96324 0.00771902 16.8439C0.24816 23.9105 6.33253 29.7053 13.4024 29.6165C16.1818 29.5818 18.75 28.6862 20.8616 27.1884C21.2972 26.8796 21.3259 26.2382 20.9482 25.8605L12.3529 17.2647Z" fill="#7048E8"/>
<path d="M41.702 24V7.66999H47.636C49.4147 7.66999 50.902 8.03799 52.098 8.77399C53.294 9.49466 54.191 10.476 54.789 11.718C55.387 12.9447 55.686 14.3093 55.686 15.812C55.686 17.468 55.3563 18.9093 54.697 20.136C54.0377 21.3627 53.1023 22.3133 51.891 22.988C50.695 23.6627 49.2767 24 47.636 24H41.702ZM52.489 15.812C52.489 14.754 52.2973 13.8263 51.914 13.029C51.5307 12.2163 50.9787 11.5877 50.258 11.143C49.5373 10.683 48.6633 10.453 47.636 10.453H44.876V21.217H47.636C48.6787 21.217 49.5603 20.987 50.281 20.527C51.0017 20.0517 51.546 19.4077 51.914 18.595C52.2973 17.767 52.489 16.8393 52.489 15.812ZM57.8219 24V11.948H60.9039V24H57.8219ZM57.8219 10.269V7.20999H60.9039V10.269H57.8219ZM74.8853 24H71.8033V17.238C71.8033 16.272 71.6346 15.5667 71.2973 15.122C70.9599 14.6773 70.4923 14.455 69.8943 14.455C69.4803 14.455 69.0586 14.5623 68.6293 14.777C68.2153 14.9917 67.8396 15.2907 67.5023 15.674C67.1649 16.042 66.9196 16.4713 66.7663 16.962V24H63.6843V11.948H66.4673V14.179C66.7739 13.6577 67.1649 13.2207 67.6403 12.868C68.1156 12.5 68.6599 12.224 69.2733 12.04C69.9019 11.8407 70.5613 11.741 71.2513 11.741C72.0026 11.741 72.6159 11.879 73.0913 12.155C73.5819 12.4157 73.9499 12.776 74.1953 13.236C74.4559 13.6807 74.6323 14.1867 74.7243 14.754C74.8316 15.3213 74.8853 15.8963 74.8853 16.479V24ZM88.7661 24H85.6841V17.238C85.6841 16.3027 85.5001 15.605 85.1321 15.145C84.7794 14.685 84.2888 14.455 83.6601 14.455C83.2921 14.455 82.9011 14.5623 82.4871 14.777C82.0731 14.9917 81.6974 15.2907 81.3601 15.674C81.0381 16.042 80.8004 16.4713 80.6471 16.962V24H77.5651V7.20999H80.6471V14.179C81.0918 13.4123 81.6974 12.8143 82.4641 12.385C83.2308 11.9557 84.0664 11.741 84.9711 11.741C85.7531 11.741 86.3894 11.879 86.8801 12.155C87.3708 12.4157 87.7541 12.776 88.0301 13.236C88.3061 13.6807 88.4978 14.1867 88.6051 14.754C88.7124 15.306 88.7661 15.881 88.7661 16.479V24ZM97.035 24.23C96.069 24.23 95.195 24.069 94.413 23.747C93.631 23.4097 92.964 22.9573 92.412 22.39C91.86 21.8073 91.4306 21.148 91.124 20.412C90.8326 19.6607 90.687 18.871 90.687 18.043C90.687 16.893 90.94 15.8427 91.446 14.892C91.9673 13.9413 92.7033 13.1823 93.654 12.615C94.62 12.0323 95.7546 11.741 97.058 11.741C98.3766 11.741 99.5036 12.0323 100.439 12.615C101.374 13.1823 102.087 13.9413 102.578 14.892C103.084 15.8273 103.337 16.8393 103.337 17.928C103.337 18.112 103.329 18.3037 103.314 18.503C103.299 18.687 103.283 18.8403 103.268 18.963H93.953C94.0143 19.5763 94.1906 20.113 94.482 20.573C94.7886 21.033 95.172 21.3857 95.632 21.631C96.1073 21.861 96.6133 21.976 97.15 21.976C97.7633 21.976 98.3383 21.8303 98.875 21.539C99.427 21.2323 99.8026 20.8337 100.002 20.343L102.647 21.079C102.356 21.6923 101.934 22.2367 101.382 22.712C100.845 23.1873 100.209 23.563 99.473 23.839C98.737 24.0997 97.9243 24.23 97.035 24.23ZM93.884 17.008H100.186C100.125 16.3947 99.9483 15.8657 99.657 15.421C99.381 14.961 99.013 14.6083 98.553 14.363C98.093 14.1023 97.5793 13.972 97.012 13.972C96.46 13.972 95.954 14.1023 95.494 14.363C95.0493 14.6083 94.6813 14.961 94.39 15.421C94.114 15.8657 93.9453 16.3947 93.884 17.008ZM105.215 24V11.948H108.297V24H105.215ZM105.215 10.269V7.20999H108.297V10.269H105.215ZM118.253 14.616C117.317 14.616 116.482 14.8 115.746 15.168C115.01 15.5207 114.481 16.0343 114.159 16.709V24H111.077V11.948H113.906V14.524C114.335 13.696 114.879 13.0443 115.539 12.569C116.198 12.0937 116.896 11.833 117.632 11.787C117.8 11.787 117.931 11.787 118.023 11.787C118.115 11.787 118.191 11.7947 118.253 11.81V14.616ZM119.076 20.435C119.076 19.653 119.291 18.9707 119.72 18.388C120.165 17.79 120.778 17.33 121.56 17.008C122.342 16.686 123.239 16.525 124.251 16.525C124.757 16.525 125.271 16.5633 125.792 16.64C126.313 16.7167 126.766 16.8393 127.149 17.008V16.364C127.149 15.5973 126.919 15.007 126.459 14.593C126.014 14.179 125.347 13.972 124.458 13.972C123.799 13.972 123.17 14.087 122.572 14.317C121.974 14.547 121.345 14.8843 120.686 15.329L119.697 13.305C120.494 12.7837 121.307 12.3927 122.135 12.132C122.978 11.8713 123.86 11.741 124.78 11.741C126.497 11.741 127.831 12.1703 128.782 13.029C129.748 13.8877 130.231 15.1143 130.231 16.709V20.55C130.231 20.872 130.285 21.102 130.392 21.24C130.515 21.378 130.706 21.4623 130.967 21.493V24C130.691 24.046 130.438 24.0843 130.208 24.115C129.993 24.1457 129.809 24.161 129.656 24.161C129.043 24.161 128.575 24.023 128.253 23.747C127.946 23.471 127.755 23.1337 127.678 22.735L127.609 22.114C127.088 22.7887 126.436 23.31 125.654 23.678C124.872 24.046 124.075 24.23 123.262 24.23C122.465 24.23 121.744 24.069 121.1 23.747C120.471 23.4097 119.973 22.9573 119.605 22.39C119.252 21.8073 119.076 21.1557 119.076 20.435ZM126.574 21.056C126.743 20.872 126.881 20.688 126.988 20.504C127.095 20.32 127.149 20.1513 127.149 19.998V18.779C126.781 18.6257 126.382 18.5107 125.953 18.434C125.524 18.342 125.117 18.296 124.734 18.296C123.937 18.296 123.277 18.4723 122.756 18.825C122.25 19.1623 121.997 19.6147 121.997 20.182C121.997 20.4887 122.081 20.78 122.25 21.056C122.419 21.332 122.664 21.5543 122.986 21.723C123.308 21.8917 123.691 21.976 124.136 21.976C124.596 21.976 125.048 21.8917 125.493 21.723C125.938 21.539 126.298 21.3167 126.574 21.056ZM144.312 24H141.23V17.238C141.23 16.272 141.061 15.5667 140.724 15.122C140.387 14.6773 139.919 14.455 139.321 14.455C138.907 14.455 138.485 14.5623 138.056 14.777C137.642 14.9917 137.266 15.2907 136.929 15.674C136.592 16.042 136.346 16.4713 136.193 16.962V24H133.111V11.948H135.894V14.179C136.201 13.6577 136.592 13.2207 137.067 12.868C137.542 12.5 138.087 12.224 138.7 12.04C139.329 11.8407 139.988 11.741 140.678 11.741C141.429 11.741 142.043 11.879 142.518 12.155C143.009 12.4157 143.377 12.776 143.622 13.236C143.883 13.6807 144.059 14.1867 144.151 14.754C144.258 15.3213 144.312 15.8963 144.312 16.479V24ZM146.256 17.974C146.256 16.8087 146.486 15.7583 146.946 14.823C147.406 13.8723 148.042 13.121 148.855 12.569C149.668 12.017 150.595 11.741 151.638 11.741C152.527 11.741 153.325 11.9633 154.03 12.408C154.751 12.8373 155.31 13.3893 155.709 14.064V7.20999H158.791V20.55C158.791 20.872 158.845 21.102 158.952 21.24C159.059 21.378 159.243 21.4623 159.504 21.493V24C158.967 24.1073 158.53 24.161 158.193 24.161C157.641 24.161 157.181 24.023 156.813 23.747C156.46 23.471 156.261 23.1107 156.215 22.666L156.169 21.907C155.724 22.6583 155.119 23.2333 154.352 23.632C153.601 24.0307 152.811 24.23 151.983 24.23C151.155 24.23 150.388 24.069 149.683 23.747C148.993 23.425 148.387 22.9803 147.866 22.413C147.36 21.8457 146.961 21.1863 146.67 20.435C146.394 19.6683 146.256 18.848 146.256 17.974ZM155.709 19.584V16.709C155.556 16.2643 155.31 15.8657 154.973 15.513C154.636 15.1603 154.26 14.8843 153.846 14.685C153.432 14.4703 153.018 14.363 152.604 14.363C152.129 14.363 151.699 14.4627 151.316 14.662C150.933 14.8613 150.595 15.1297 150.304 15.467C150.028 15.8043 149.813 16.1953 149.66 16.64C149.522 17.0847 149.453 17.5523 149.453 18.043C149.453 18.5337 149.53 19.0013 149.683 19.446C149.852 19.8753 150.089 20.251 150.396 20.573C150.703 20.895 151.055 21.148 151.454 21.332C151.868 21.516 152.313 21.608 152.788 21.608C153.079 21.608 153.371 21.562 153.662 21.47C153.969 21.3627 154.252 21.2247 154.513 21.056C154.789 20.872 155.027 20.6573 155.226 20.412C155.441 20.1513 155.602 19.8753 155.709 19.584ZM167.382 24.23C166.401 24.23 165.519 24.069 164.737 23.747C163.955 23.4097 163.288 22.9497 162.736 22.367C162.199 21.7843 161.785 21.1173 161.494 20.366C161.203 19.6147 161.057 18.825 161.057 17.997C161.057 17.1537 161.203 16.3563 161.494 15.605C161.785 14.8537 162.199 14.1867 162.736 13.604C163.288 13.0213 163.955 12.569 164.737 12.247C165.519 11.9097 166.401 11.741 167.382 11.741C168.363 11.741 169.237 11.9097 170.004 12.247C170.786 12.569 171.453 13.0213 172.005 13.604C172.557 14.1867 172.971 14.8537 173.247 15.605C173.538 16.3563 173.684 17.1537 173.684 17.997C173.684 18.825 173.538 19.6147 173.247 20.366C172.971 21.1173 172.557 21.7843 172.005 22.367C171.468 22.9497 170.809 23.4097 170.027 23.747C169.245 24.069 168.363 24.23 167.382 24.23ZM164.231 17.997C164.231 18.7023 164.369 19.331 164.645 19.883C164.921 20.4197 165.297 20.8413 165.772 21.148C166.247 21.4547 166.784 21.608 167.382 21.608C167.965 21.608 168.494 21.4547 168.969 21.148C169.444 20.826 169.82 20.3967 170.096 19.86C170.387 19.308 170.533 18.6793 170.533 17.974C170.533 17.284 170.387 16.663 170.096 16.111C169.82 15.559 169.444 15.1297 168.969 14.823C168.494 14.5163 167.965 14.363 167.382 14.363C166.784 14.363 166.247 14.524 165.772 14.846C165.297 15.1527 164.921 15.582 164.645 16.134C164.369 16.6707 164.231 17.2917 164.231 17.997Z" fill="#7048E8"/>
</g>
<defs>
<clipPath id="clip0_1208_209687">
<rect width="175" height="31" fill="white"/>
</clipPath>
</defs>
</svg>
