<svg width="50" height="48" viewBox="0 0 50 48" fill="none" xmlns="http://www.w3.org/2000/svg">
<path d="M48.5103 26.5932H26.7005L41.2253 41.1855C41.7804 41.7432 42.6941 41.7884 43.2648 41.2483C46.8218 37.8815 49.2684 33.3432 49.9862 28.2415C50.1094 27.3679 49.3879 26.5932 48.5103 26.5932ZM47.0553 20.6097C46.2979 9.57886 37.5239 0.764206 26.5443 0.00333849C25.706 -0.0548305 25.0001 0.655253 25.0001 1.49922V22.1608H45.5673C46.4073 22.1608 47.1131 21.4517 47.0553 20.6097ZM20.5883 26.5932V4.68214C20.5883 3.80031 19.8173 3.07546 18.9487 3.19918C7.99558 4.75417 -0.376636 14.3676 0.0130684 25.8886C0.413802 37.721 10.5544 47.4238 22.3375 47.2751C26.9698 47.217 31.2501 45.7174 34.7695 43.2095C35.4955 42.6924 35.5433 41.6185 34.9138 40.9861L20.5883 26.5932Z" fill="white"/>
</svg>
